HIERARCHY
ROOT hip
{
	OFFSET 0.000000 0.000000 0.000000 
	CHANNELS 6 Xposition Yposition Zposition Xrotation Zrotation Yrotation
	JOINT abdomen
	{
		OFFSET 0.000000 3.402643 0.000000 
		CHANNELS 3 Xrotation Zrotation Yrotation
		JOINT chest
		{
			OFFSET 0.000000 8.438565 -0.680529 
			CHANNELS 3 Xrotation Zrotation Yrotation
			JOINT neck
			{
				OFFSET 0.000000 10.207942 -0.272212 
				CHANNELS 3 Xrotation Zrotation Yrotation
				JOINT head
				{
					OFFSET 0.000000 3.130431 0.000000 
					CHANNELS 3 Xrotation Zrotation Yrotation
					End Site
					{
						OFFSET 0.000000 3.130435 0.000000 
					}
				}
			}
			JOINT lCollar
			{
				OFFSET 3.470700 6.669187 -0.816635 
				CHANNELS 3 Yrotation Zrotation Xrotation
				JOINT lShldr
				{
					OFFSET 3.198488 0.000000 0.000000 
					CHANNELS 3 Zrotation Yrotation Xrotation
					JOINT lForeArm
					{
						OFFSET 10.139888 0.000000 0.000000 
						CHANNELS 3 Yrotation Zrotation Xrotation
						JOINT lHand
						{
							OFFSET 8.370511 0.000000 0.000000 
							CHANNELS 3 Zrotation Yrotation Xrotation
							End Site
							{
								OFFSET 4.083176 0.000000 0.000000 
							}
						}
					}
				}
			}
			JOINT rCollar
			{
				OFFSET -3.470700 6.669187 -0.816635 
				CHANNELS 3 Yrotation Zrotation Xrotation
				JOINT rShldr
				{
					OFFSET -3.198488 0.000000 0.000000 
					CHANNELS 3 Zrotation Yrotation Xrotation
					JOINT rForeArm
					{
						OFFSET -10.139888 0.000000 0.000000 
						CHANNELS 3 Yrotation Zrotation Xrotation
						JOINT rHand
						{
							OFFSET -8.370511 0.000000 0.000000 
							CHANNELS 3 Zrotation Yrotation Xrotation
							End Site
							{
								OFFSET -4.083176 0.000000 0.000000 
							}
						}
					}
				}
			}
		}
	}
	JOINT lThigh
	{
		OFFSET 5.308129 -1.633274 1.361059 
		CHANNELS 3 Xrotation Zrotation Yrotation
		JOINT lShin
		{
			OFFSET -2.041588 -20.007561 0.000000 
			CHANNELS 3 Xrotation Zrotation Yrotation
			JOINT lFoot
			{
				OFFSET 0.000000 -19.190928 -1.224953 
				CHANNELS 3 Xrotation Yrotation Zrotation
				End Site
				{
					OFFSET 0.000000 -2.449906 4.627600 
				}
			}
		}
	}
	JOINT rThigh
	{
		OFFSET -5.308129 -1.633274 1.361059 
		CHANNELS 3 Xrotation Zrotation Yrotation
		JOINT rShin
		{
			OFFSET 2.041588 -20.007561 0.000000 
			CHANNELS 3 Xrotation Zrotation Yrotation
			JOINT rFoot
			{
				OFFSET 0.000000 -19.190928 -1.224953 
				CHANNELS 3 Xrotation Yrotation Zrotation
				End Site
				{
					OFFSET 0.000000 -2.449906 4.627600 
				}
			}
		}
	}
}
MOTION
Frames: 11
Frame Time: 0.016667
0.167919 41.973583 0.765940 8.893490 -4.390150 2.184600 -17.300400 5.196210 2.835580 14.208900 0.271761 1.835000 26.897600 -9.456820 26.433701 -8.603520 0.000000 0.000000 2.000000 -2.000000 0.000000 -104.778999 -13.050300 -130.498001 41.348099 -0.317483 0.090376 2.437650 4.884720 144.612000 -2.000000 2.000000 0.000000 93.162201 20.033800 -142.401001 -36.455502 0.324812 0.081245 -0.910979 6.835860 148.518997 -33.680367 9.488528 -8.343917 38.393398 2.540338 2.755718 -12.833344 -4.544655 0.228507 -28.859818 -0.678452 1.474324 41.686039 -2.039056 -3.106918 -20.144600 -3.505652 -2.507672 
0.254044 41.989166 0.786163 8.950530 -4.244740 1.597380 -17.227100 4.969010 2.451310 14.267500 0.262085 1.621510 26.397900 -9.635060 27.248199 -8.603520 0.000000 0.000000 2.000000 -2.000000 0.000000 -104.716003 -13.964900 -128.233002 40.547298 -0.318736 0.088933 2.837860 4.673090 149.451996 -2.000000 2.000000 0.000000 91.671799 18.214199 -145.781006 -39.258202 0.320709 0.086525 -1.409780 6.775270 144.350006 -33.554333 9.473720 -8.037763 38.433479 2.530017 2.761328 -12.835606 -4.253474 0.301966 -28.909229 -0.654296 1.988303 41.557735 -2.051966 -3.095279 -20.026491 -3.511952 -2.472824 
0.362681 42.007080 0.810044 9.007390 -4.080090 0.925630 -17.160500 4.738460 2.170050 14.316400 0.174740 1.465270 26.000401 -9.756770 27.968100 -8.603520 0.000000 0.000000 2.000000 -2.000000 0.000000 -104.702003 -15.084600 -125.936996 39.805099 -0.319878 0.087581 3.304750 4.383870 155.376007 -2.000000 2.000000 0.000000 90.542503 16.346399 -149.358994 -42.432098 0.315756 0.092254 -1.901030 6.670230 140.203995 -33.375183 9.476596 -7.648839 38.462875 2.529114 2.760363 -12.897219 -3.946152 0.381639 -28.959091 -0.661065 2.517707 41.390026 -2.063154 -3.074010 -19.895515 -3.418664 -2.423182 
0.490209 42.026943 0.839088 9.074200 -3.925020 0.183652 -17.091999 4.516550 1.967400 14.384800 0.019418 1.355330 25.638100 -9.796470 28.616600 -8.603520 0.000000 0.000000 2.000000 -2.000000 0.000000 -104.747002 -16.380301 -123.650002 39.092201 -0.320959 0.086267 3.827890 3.967090 162.460007 -2.000000 2.000000 0.000000 89.764503 14.498500 -152.975998 -45.879299 0.310027 0.098155 -2.287010 6.557410 136.796005 -33.098076 9.502006 -7.254464 38.433807 2.516994 2.747241 -12.950294 -3.555633 0.482451 -29.006929 -0.671595 3.019256 41.193909 -2.071033 -3.071604 -19.747631 -3.203570 -2.311956 
0.619943 42.051479 0.874878 9.131050 -3.750830 -0.710466 -17.031700 4.326150 1.876480 14.433600 -0.097099 1.289710 25.320200 -9.754290 29.213400 -8.603520 0.000000 0.000000 2.000000 -2.000000 0.000000 -104.849998 -17.793501 -121.433998 38.359798 -0.322052 0.084904 4.342250 3.421340 170.445999 -2.000000 2.000000 0.000000 89.269096 12.660200 -156.414993 -49.541500 0.303564 0.104034 -2.526740 6.481110 134.727997 -32.902046 9.534786 -6.774881 38.530647 2.534601 2.751384 -13.050599 -3.116488 0.586174 -29.013147 -0.672157 3.608774 40.850513 -2.076602 -3.052592 -19.532921 -2.892585 -2.187028 
0.787483 42.071720 0.909686 9.246580 -3.566450 -1.410390 -17.010900 4.092330 1.725560 14.501900 -0.330179 1.216660 25.037001 -9.709000 29.784401 -8.603520 0.000000 0.000000 2.000000 -2.000000 0.000000 -105.051003 -19.304600 -119.333000 37.637100 -0.323114 0.083545 -175.205002 177.212997 -1.178980 -2.000000 2.000000 0.000000 89.007500 10.880200 -159.623001 -53.428200 0.296309 0.109808 -2.634000 6.442740 133.783005 -32.744587 9.421722 -6.494482 38.533043 2.512194 2.772953 -13.061089 -2.650562 0.695488 -29.141504 -0.833083 3.941185 40.673454 -2.086021 -3.040286 -19.403584 -2.515722 -2.038446 
1.029145 42.078339 0.937169 9.469860 -3.390760 -1.571260 -17.021299 3.753650 1.349400 14.638100 -0.806227 1.030830 24.758699 -9.743930 30.312300 -8.603520 0.000000 0.000000 2.000000 -2.000000 0.000000 -105.331001 -20.933399 -117.449997 37.119499 -0.323864 0.082564 -174.856995 177.891006 7.001250 -2.000000 2.000000 0.000000 88.931099 9.256090 -162.634003 -57.568901 0.288169 0.115404 -2.652710 6.431410 133.567001 -32.834290 8.946022 -6.742239 38.477367 2.477985 2.792192 -12.969291 -2.160630 0.775143 -29.357088 -1.320805 3.703721 40.505432 -2.103852 -3.021181 -19.324371 -2.070076 -1.896986 
1.286767 42.079517 0.965464 9.692860 -3.186370 -1.657480 -17.021500 3.430340 0.958365 14.774000 -1.253360 0.839778 24.479500 -9.843070 30.834700 -8.603520 0.000000 0.000000 2.000000 -2.000000 0.000000 -105.680000 -22.621099 -115.875999 36.982800 -0.324060 0.082303 5.375650 1.453690 -165.634995 -2.000000 2.000000 0.000000 89.030098 7.846600 -165.479004 -61.943901 0.279152 0.120661 -2.635100 6.441620 133.772995 -32.991768 8.392847 -7.048751 38.468311 2.464469 2.787892 -12.837468 -1.618472 0.870646 -29.583834 -1.891835 3.406905 40.376099 -2.130404 -3.004304 -19.266068 -1.617093 -1.763577 
1.480315 42.092491 1.003888 9.778580 -2.935320 -2.351690 -16.961800 3.277030 0.855869 14.871400 -1.379900 0.781852 24.246599 -9.981380 31.378901 -8.603520 0.000000 0.000000 2.000000 -2.000000 0.000000 -106.107002 -24.358101 -114.545998 37.334400 -0.323553 0.082972 5.496490 0.903363 -159.660995 -2.000000 2.000000 0.000000 89.236198 6.670900 -168.041000 -66.524002 0.269313 0.125411 -2.574330 6.463540 134.264999 -32.831921 8.161371 -6.779916 38.469971 2.440763 2.789509 -12.854277 -1.049128 1.021114 -29.766539 -2.147740 3.718991 40.257351 -2.155682 -3.006078 -19.149311 -1.188766 -1.588415 
1.619940 42.111443 1.043666 9.834960 -2.665380 -3.509170 -16.862200 3.254120 0.989910 14.949700 -1.292620 0.839747 24.102699 -10.122400 31.884800 -8.603520 0.000000 0.000000 2.000000 -2.000000 0.000000 -106.612999 -26.192600 -113.088997 38.213299 -0.322269 0.084629 5.543600 0.511757 -155.434006 -2.000000 2.000000 0.000000 89.451897 5.787520 -170.298996 -71.182198 0.258949 0.129421 -2.482120 6.489470 135.052994 -32.517826 8.232453 -6.059825 38.490589 2.427851 2.794702 -12.973639 -0.565230 1.149629 -29.943180 -2.133370 4.441396 40.080090 -2.159921 -2.982315 -18.943401 -0.793394 -1.421334 
1.744927 42.124813 1.074687 9.920940 -2.404940 -4.678360 -16.762699 3.276340 1.161020 15.057500 -1.147040 0.911182 24.002100 -10.263000 32.378201 -8.603520 0.000000 0.000000 2.000000 -2.000000 0.000000 -107.264000 -28.144199 -111.344002 39.531700 -0.320295 0.087078 5.564400 0.265638 -152.807999 -2.000000 2.000000 0.000000 -90.488998 174.725998 7.805560 -75.781799 0.248429 0.132541 -2.342920 6.535680 136.255005 -32.267178 8.352873 -5.292988 38.520294 2.428267 2.803954 -13.106403 -0.146418 1.278468 -30.190771 -2.054525 5.252440 39.982071 -2.157439 -2.974075 -18.766897 -0.449762 -1.264079 
